<svg width="1200" height="800" viewBox="0 0 1200 800" fill="none" xmlns="http://www.w3.org/2000/svg">
  <rect width="1200" height="800" rx="48" fill="#0F1722"/>
  <circle cx="959" cy="154" r="168" fill="#1F6CB8" fill-opacity="0.22"/>
  <circle cx="213" cy="653" r="198" fill="#5DD1A3" fill-opacity="0.16"/>
  <rect x="140" y="140" width="920" height="520" rx="36" fill="#161F2B" stroke="#2E3B4D" stroke-width="2"/>
  <rect x="206" y="214" width="350" height="252" rx="24" fill="#10161F" stroke="#355D89" stroke-width="2"/>
  <rect x="624" y="214" width="302" height="28" rx="14" fill="#2A3748"/>
  <rect x="624" y="270" width="238" height="20" rx="10" fill="#223041"/>
  <rect x="624" y="314" width="314" height="20" rx="10" fill="#223041"/>
  <rect x="624" y="358" width="192" height="20" rx="10" fill="#223041"/>
  <rect x="624" y="434" width="162" height="68" rx="20" fill="#1F6CB8" fill-opacity="0.18" stroke="#4E89C5" stroke-width="2"/>
  <rect x="810" y="434" width="162" height="68" rx="20" fill="#5DD1A3" fill-opacity="0.14" stroke="#58B997" stroke-width="2"/>
  <rect x="206" y="512" width="766" height="74" rx="20" fill="#10161F" stroke="#273241" stroke-width="2"/>
  <circle cx="380" cy="340" r="86" fill="#1D6AB6" fill-opacity="0.16" stroke="#6CA7E3" stroke-width="2"/>
  <rect x="336" y="301" width="88" height="78" rx="18" fill="#0F1722" stroke="#77B4F0" stroke-width="2"/>
  <circle cx="362" cy="329" r="10" fill="#77B4F0"/>
  <circle cx="398" cy="329" r="10" fill="#77B4F0"/>
  <path d="M352 361C364.667 347.667 396.4 329 422 361" stroke="#77B4F0" stroke-width="8" stroke-linecap="round"/>
  <path d="M295 422L342 378" stroke="#58B997" stroke-width="10" stroke-linecap="round"/>
  <path d="M465 422L418 378" stroke="#58B997" stroke-width="10" stroke-linecap="round"/>
  <path d="M352 424L333 476" stroke="#58B997" stroke-width="10" stroke-linecap="round"/>
  <path d="M408 424L427 476" stroke="#58B997" stroke-width="10" stroke-linecap="round"/>
  <text x="140" y="96" fill="#E7EEF7" font-family="Arial, sans-serif" font-size="44" font-weight="700">ROBOT INSPECTION PLATFORM</text>
</svg>
