<svg width="1200" height="800" viewBox="0 0 1200 800" fill="none" xmlns="http://www.w3.org/2000/svg">
  <rect width="1200" height="800" rx="48" fill="#111827"/>
  <circle cx="958" cy="136" r="164" fill="#3B82F6" fill-opacity="0.18"/>
  <circle cx="174" cy="674" r="204" fill="#22C55E" fill-opacity="0.14"/>
  <rect x="140" y="152" width="920" height="496" rx="34" fill="#182231" stroke="#304154" stroke-width="2"/>
  <circle cx="340" cy="292" r="74" fill="#182231" stroke="#67A3EB" stroke-width="3"/>
  <circle cx="600" cy="246" r="62" fill="#182231" stroke="#67A3EB" stroke-width="3"/>
  <circle cx="848" cy="334" r="84" fill="#182231" stroke="#67A3EB" stroke-width="3"/>
  <circle cx="500" cy="468" r="90" fill="#182231" stroke="#74D5A2" stroke-width="3"/>
  <circle cx="788" cy="520" r="62" fill="#182231" stroke="#74D5A2" stroke-width="3"/>
  <path d="M404 279L540 255" stroke="#67A3EB" stroke-width="6" stroke-linecap="round"/>
  <path d="M655 272L772 313" stroke="#67A3EB" stroke-width="6" stroke-linecap="round"/>
  <path d="M382 342L447 412" stroke="#74D5A2" stroke-width="6" stroke-linecap="round"/>
  <path d="M590 329L536 392" stroke="#74D5A2" stroke-width="6" stroke-linecap="round"/>
  <path d="M572 499L726 514" stroke="#74D5A2" stroke-width="6" stroke-linecap="round"/>
  <rect x="194" y="556" width="202" height="24" rx="12" fill="#29384B"/>
  <rect x="454" y="556" width="276" height="24" rx="12" fill="#29384B"/>
  <rect x="768" y="556" width="126" height="24" rx="12" fill="#29384B"/>
  <text x="140" y="96" fill="#E7EEF7" font-family="Arial, sans-serif" font-size="42" font-weight="700">LOCAL NETWORK SUITE</text>
</svg>
