<svg width="1200" height="800" viewBox="0 0 1200 800" fill="none" xmlns="http://www.w3.org/2000/svg">
  <rect width="1200" height="800" rx="48" fill="#F4F7FB"/>
  <circle cx="1024" cy="174" r="170" fill="#BBD8F6"/>
  <circle cx="158" cy="662" r="194" fill="#D5F0E4"/>
  <rect x="138" y="142" width="924" height="516" rx="36" fill="#FFFFFF" stroke="#DCE4EC" stroke-width="2"/>
  <rect x="196" y="210" width="264" height="164" rx="24" fill="#EEF5FC" stroke="#D4E3F3" stroke-width="2"/>
  <rect x="494" y="210" width="264" height="164" rx="24" fill="#F7F9FC" stroke="#E3E9F0" stroke-width="2"/>
  <rect x="792" y="210" width="212" height="164" rx="24" fill="#EEF9F4" stroke="#D2EDE1" stroke-width="2"/>
  <rect x="196" y="404" width="808" height="48" rx="16" fill="#F7F9FC" stroke="#E3E9F0" stroke-width="2"/>
  <rect x="196" y="482" width="232" height="120" rx="22" fill="#F8FBFE" stroke="#E3EAF2" stroke-width="2"/>
  <rect x="452" y="482" width="232" height="120" rx="22" fill="#F8FBFE" stroke="#E3EAF2" stroke-width="2"/>
  <rect x="708" y="482" width="296" height="120" rx="22" fill="#EEF5FC" stroke="#D4E3F3" stroke-width="2"/>
  <rect x="228" y="246" width="148" height="18" rx="9" fill="#9BC2EA"/>
  <rect x="228" y="286" width="112" height="14" rx="7" fill="#C0D7EE"/>
  <rect x="526" y="246" width="148" height="18" rx="9" fill="#BBC7D8"/>
  <rect x="526" y="286" width="112" height="14" rx="7" fill="#D7E0EA"/>
  <rect x="824" y="246" width="112" height="18" rx="9" fill="#A5DCC0"/>
  <rect x="824" y="286" width="72" height="14" rx="7" fill="#CDECDD"/>
  <text x="140" y="96" fill="#172231" font-family="Arial, sans-serif" font-size="42" font-weight="700">LEARNING NOTES ENGINE</text>
</svg>
